# xmcd CD database file
#
# Track frame offsets:
#	150
#	19732
#	37380
#	57717
#	77195
#	94800
#
# Disc length: 1535 seconds
#
# Revision: 0
# Processed by: cddbd v1.5.2PL0 Copyright (c) Steve Scherf et al.
# Submitted via: CDex 1.70beta3
#
DISCID=5105fd06
DTITLE=lol -エル・オー・エル- - ボーイフレンド／ガールフレンド
DYEAR=2017
DGENRE=VISION FACTORY
TTITLE0=boyfriend
TTITLE1=girlfriend
TTITLE2=party up!!
TTITLE3=boyfriend （カラオケ）
TTITLE4=girlfriend （カラオケ）
TTITLE5=party up!! （カラオケ）
EXTD=YEAR: 2017
EXTT0=
EXTT1=
EXTT2=
EXTT3=
EXTT4=
EXTT5=
PLAYORDER=
